<?xml version="1.0" standalone="no"?><!DOCTYPE svg PUBLIC "-//W3C//DTD SVG 1.1//EN" "http://www.w3.org/Graphics/SVG/1.1/DTD/svg11.dtd"><svg t="1563548501101" class="icon" viewBox="0 0 1024 1024" version="1.1" xmlns="http://www.w3.org/2000/svg" p-id="26555" xmlns:xlink="http://www.w3.org/1999/xlink" width="96" height="96"><defs><style type="text/css"></style></defs><path d="M630.8 531.3a46.8 45.9 0 1 0 93.6 0 46.8 45.9 0 1 0-93.6 0Z" fill="#BBBBBB" p-id="26556"></path><path d="M512.5 86.3c-234.7 0-425 190.3-425 425 0 163.5 92.4 305.5 227.8 376.6-4.4-28.7-2.6-59.2 6.3-74.9l40.4-71.6c-72.5-49.7-120-132.1-120-225.5 0-151.9 125.4-275 280.1-275s280.1 123.1 280.1 275c0 97.6-51.9 183.1-130 231.9l38.9 65.2c9.1 15.2 9.7 44.1 4.1 72 132.4-72 222.3-212.3 222.3-373.6 0-234.8-190.3-425.1-425-425.1z" fill="#BBBBBB" p-id="26557"></path><path d="M460 531.3a46.8 45.9 0 1 0 93.6 0 46.8 45.9 0 1 0-93.6 0Z" fill="#BBBBBB" p-id="26558"></path></svg>