<?xml version="1.0" standalone="no"?><!DOCTYPE svg PUBLIC "-//W3C//DTD SVG 1.1//EN" "http://www.w3.org/Graphics/SVG/1.1/DTD/svg11.dtd"><svg t="1581602595374" class="icon" viewBox="0 0 1365 1024" version="1.1" xmlns="http://www.w3.org/2000/svg" p-id="1351" width="295.927734375" height="222" xmlns:xlink="http://www.w3.org/1999/xlink"><defs><style type="text/css"></style></defs><path d="M792.588969 699.683128c-2.388215 15.20355-3.62497 30.769596-3.624969 46.634169 0 54.374546 14.542526 105.337356 39.938637 149.263459H127.940108V516.920683l198.200551-189.969737 466.44831 372.732182zM1279.40108 517.645677a298.804122 298.804122 0 0 0-63.970054-41.132745V85.293405a21.323351 21.323351 0 0 0-21.323351-21.323351H85.293405a21.323351 21.323351 0 0 0-21.323351 21.323351v852.934054a21.323351 21.323351 0 0 0 21.323351 21.323351h793.271317a298.846769 298.846769 0 0 0 97.916829 63.970054H85.293405a85.293405 85.293405 0 0 1-85.293405-85.293405V85.293405a85.293405 85.293405 0 0 1 85.293405-85.293405h1108.81427a85.293405 85.293405 0 0 1 85.293405 85.293405v432.352272z m-55.760563 500.629643a84.930908 84.930908 0 0 1-24.863028 5.117604c7.036706-2.814682 13.924148-5.906568 20.726297-9.254334l4.136731 4.13673zM895.580756 234.556865a106.616757 106.616757 0 1 1 213.233514 0 106.616757 106.616757 0 0 1-213.233514 0z" fill="#DFDFDF" opacity=".9" p-id="1352"></path><path d="M892.979307 519.863306a298.100452 298.100452 0 0 0-100.603571 181.141869l-202.337281-163.400841 217.754064-141.544406 85.186788 123.803378z" fill="#DCDCDC" opacity=".5" p-id="1353"></path><path d="M1355.312211 969.018378a31.985027 31.985027 0 1 1-45.248151 45.226828l-80.943442-80.943441A233.533344 233.533344 0 0 1 1087.490918 980.874162c-129.539359 0-234.556865-105.017505-234.556864-234.556865s105.017505-234.556865 234.556864-234.556865 234.556865 105.017505 234.556865 234.556865c0 53.265732-17.762352 102.394733-47.679014 141.75764l80.943442 80.943441z m-131.863605-119.624001A169.520643 169.520643 0 0 0 1258.077729 746.317297a170.586811 170.586811 0 1 0-170.586811 170.586811 169.520643 169.520643 0 0 0 102.970464-34.565153l18.743226-14.222675 14.243998-18.743226z" fill="#DBDBDB" p-id="1354"></path></svg>