<?xml version="1.0" standalone="no"?><!DOCTYPE svg PUBLIC "-//W3C//DTD SVG 1.1//EN" "http://www.w3.org/Graphics/SVG/1.1/DTD/svg11.dtd"><svg t="1563889496821" class="icon" viewBox="0 0 1025 1024" version="1.1" xmlns="http://www.w3.org/2000/svg" p-id="5731" xmlns:xlink="http://www.w3.org/1999/xlink" width="96.09375" height="96"><defs><style type="text/css"></style></defs><path d="M551.497143 620.251429c8.777143-10.24 8.777143-27.794286-1.462857-38.034286l-138.971429-147.748572-43.885714-43.885714c-2.925714 1.462857-2.925714 2.925714-5.851429 5.851429L73.142857 746.057143V194.56c2.925714-16.091429 14.628571-26.331429 29.257143-26.331429h394.971429l64.365714-73.142857h-497.371429C27.794286 95.085714 0 124.342857 0 160.914286v702.171428c0 35.108571 27.794286 64.365714 64.365714 64.365715h220.891429l266.24-307.2z m95.085714-289.645715c0 61.44 49.737143 109.714286 109.714286 109.714286s109.714286-49.737143 109.714286-109.714286-49.737143-109.714286-109.714286-109.714285-109.714286 49.737143-109.714286 109.714285z" fill="#E0E0E0" p-id="5732"></path><path d="M958.171429 95.085714H744.594286c-1.462857 2.925714-2.925714 5.851429-4.388572 7.314286l-57.051428 65.828571h235.52c16.091429 0 27.794286 11.702857 29.257143 27.794286l1.462857 547.108572-228.205715-242.834286c-7.314286-8.777143-17.554286-13.165714-29.257142-13.165714s-19.017143 5.851429-29.257143 11.702857l-10.24 8.777143 67.291428 71.68c10.24 10.24 10.24 26.331429 1.462857 38.034285L453.485714 927.451429h507.611429c35.108571 0 64.365714-27.794286 64.365714-64.365715V160.914286c-2.925714-38.034286-30.72-65.828571-67.291428-65.828572z" fill="#E0E0E0" p-id="5733"></path></svg>